<svg xmlns="http://www.w3.org/2000/svg" width="18.051" height="24.261" viewBox="0 0 18.051 24.261">
  <g id="Group_9837" data-name="Group 9837" transform="translate(0)">
    <path id="Path_7882" data-name="Path 7882" d="M119.441,14.188a18.822,18.822,0,0,0,3.416-.153,2.989,2.989,0,0,0,1.476,0c3.335.162,5.934,1.106,5.934-5.682,0-4.608-2.992-8.349-6.684-8.349S116.9,3.741,116.9,8.349c0,3.705.709,5.145,1.859,5.646A2.467,2.467,0,0,0,119.441,14.188Zm-1.065-8.444c.7.97,2.514.763,4.08-.465a5.965,5.965,0,0,0,1.024-1.029.9.9,0,0,1,.108.018,3.609,3.609,0,0,1,.451.131,4.152,4.152,0,0,1,.429.208,3.915,3.915,0,0,1,.393.257,3.6,3.6,0,0,1,.334.3,2.38,2.38,0,0,1,.266.311,3.057,3.057,0,0,1,.2.293,1.374,1.374,0,0,1,.135.244c.068.14.108.221.108.221s-.014-.086-.041-.244a2.241,2.241,0,0,0-.059-.28,2.34,2.34,0,0,0-.113-.361,3.468,3.468,0,0,0-.18-.411,4.651,4.651,0,0,0-.262-.438,5.057,5.057,0,0,0-.352-.429,4.51,4.51,0,0,0-.429-.4,4.489,4.489,0,0,0-.447-.293,3.525,3.525,0,0,0,.167-.42,5.3,5.3,0,0,1,1.589,1.029c1.674,1.674,1.015,3.619,2.306,2.333a3.472,3.472,0,0,0,.5-.627.57.57,0,0,1,.126,0,.593.593,0,0,1,.352.289,1.533,1.533,0,0,1,.108,1.142,1.3,1.3,0,0,1-.912,1.047l-.271.036-.072.266c-.641,2.324-2.369,4.8-4.323,4.8s-3.678-2.473-4.323-4.8l-.072-.266-.271-.036a1.325,1.325,0,0,1-.912-1.047,1.533,1.533,0,0,1,.108-1.142A.607.607,0,0,1,118.376,5.745Z" transform="translate(-114.729)" fill="#ffb800"/>
    <path id="Path_7883" data-name="Path 7883" d="M82.677,327.9a5.11,5.11,0,0,1-1.936,2.062c-1.661.848-2.9,1.543-2.9,1.543l0,0v-.014l-.014.009-.014-.009v.014l0,0s-1.232-.686-2.9-1.543a5.14,5.14,0,0,1-1.936-2.062c-2.46,1-4.174,3.294-4.174,5.3v4.161H86.851V333.2C86.851,331.2,85.132,328.9,82.677,327.9Z" transform="translate(-68.8 -313.102)" fill="#ffb800"/>
  </g>
</svg>
