<svg xmlns="http://www.w3.org/2000/svg" width="19.565" height="24.364" viewBox="0 0 19.565 24.364">
  <g id="Group_9836" data-name="Group 9836" transform="translate(0 0)">
    <path id="Path_7880" data-name="Path 7880" d="M64.511,243.22a10.819,10.819,0,0,1-3.975-2.058l-.094.09a4,4,0,0,1-2.6,1.246h-.079a4,4,0,0,1-2.6-1.246l-.094-.09A10.819,10.819,0,0,1,51.1,243.22c-4.145,1.548-2.9,7.849-2.9,7.9.131.7.207.943.273.97,4.162,1.853,14.5,1.853,18.666,0,.066-.027.142-.268.273-.97C67.411,251.069,68.672,244.793,64.511,243.22Z" transform="translate(-48.026 -229.114)" fill="#1f6d9d"/>
    <path id="Path_7881" data-name="Path 7881" d="M162.251,6.067l-.035-.038a2.893,2.893,0,0,1-.215-.2,8.244,8.244,0,0,0,.081-3.023C161.569,1.255,158.511.216,157.9.1c0,0-.373-.076-.4-.076a1.9,1.9,0,0,0-1.042.146,5.053,5.053,0,0,0-2.809,2.639,8.244,8.244,0,0,0,.081,3.023,2.9,2.9,0,0,1-.215.2l-.035.038a1.825,1.825,0,0,0,.054,1.323,3.025,3.025,0,0,0,.409.878c.495,2.323,2.215,4.306,3.968,4.306s3.383-1.983,3.877-4.306a3.024,3.024,0,0,0,.409-.878C162.369,6.807,162.413,6.208,162.251,6.067Z" transform="translate(-148.118 0)" fill="#1f6d9d"/>
  </g>
</svg>
